<?xml version="1.0" encoding="UTF-8"?>
<svg id="Expanded" xmlns="http://www.w3.org/2000/svg" viewBox="0 0 64 64">
  <path d="M32,19.61c-10.32,0-18.72,8.4-18.72,18.72s8.4,18.72,18.72,18.72,18.72-8.4,18.72-18.72-8.4-18.72-18.72-18.72ZM32,55.04c-2.61,0-5.06-.62-7.27-1.68l1.63-2.24c.33-.45.23-1.07-.22-1.4-.45-.32-1.07-.23-1.4.22l-1.77,2.43c-2.03-1.31-3.76-3.05-5.06-5.09l2.52-1.45c.48-.28.64-.89.37-1.37-.27-.48-.88-.64-1.37-.37l-2.5,1.43c-.89-1.85-1.45-3.88-1.6-6.03h3.05c.55,0,1-.45,1-1s-.45-1-1-1h-3.07c.12-2.45.76-4.77,1.83-6.84l2.28,1.31c.16.09.33.13.5.13.35,0,.68-.18.87-.5.28-.48.11-1.09-.37-1.37l-2.26-1.3c1.36-2,3.15-3.67,5.22-4.92l1.87,2.57c.2.27.5.41.81.41.2,0,.41-.06.59-.19.45-.33.55-.95.22-1.4l-1.7-2.34c2.09-.94,4.39-1.47,6.82-1.47,9.22,0,16.72,7.5,16.72,16.72s-7.5,16.72-16.72,16.72ZM42.35,29.18s-.06-.04-.08-.07c-1.67-1.87-3.83-3.29-6.33-4.04-1.18-.35-2.43-.13-3.41.6-.97.73-1.53,1.84-1.53,3.05v19.18c0,1.21.56,2.33,1.53,3.05.68.5,1.48.77,2.29.77.37,0,.75-.05,1.12-.16,2.74-.81,5.08-2.46,6.8-4.6.02-.02.05-.03.06-.05.02-.03.03-.06.05-.09,1.86-2.38,2.96-5.36,2.96-8.5,0-3.41-1.28-6.62-3.43-9.09-.01-.02-.02-.04-.03-.06ZM41.85,44.81l-7.27-6.14,9.23-.13c-.04,2.28-.75,4.44-1.96,6.27ZM35.05,36.67l6.4-5.41c1.15,1.54,1.93,3.35,2.23,5.29l-8.63.12ZM33.73,27.29c.33-.24.71-.37,1.1-.37.18,0,.36.03.54.08,1.81.54,3.43,1.51,4.74,2.76l-7.12,6.01v-7.04c0-.58.27-1.11.73-1.45ZM35.37,49.66c-.57.17-1.17.06-1.65-.29-.46-.34-.73-.87-.73-1.45v-7.96l7.61,6.43c-1.4,1.51-3.19,2.66-5.24,3.27ZM52.64,18.06c0-2.86-2.33-5.18-5.18-5.18-2.5,0-4.59,1.78-5.07,4.13-1.56-.76-3.21-1.35-4.93-1.76v-4.46c2.12,0,3.84-1.73,3.84-3.85v-1.13c0-2.12-1.73-3.85-3.85-3.85h-11.13c-2.12,0-3.85,1.73-3.85,3.85v1.13c0,2.12,1.72,3.84,3.84,3.85v4.52c-1.72.43-3.36,1.04-4.91,1.82-.44-2.41-2.55-4.25-5.09-4.25-2.86,0-5.18,2.33-5.18,5.18,0,2.07,1.24,3.87,3.02,4.69-3.64,4.17-5.86,9.62-5.86,15.58,0,13.08,10.64,23.72,23.72,23.72s23.72-10.64,23.72-23.72c0-6-2.24-11.48-5.93-15.66,1.69-.85,2.84-2.61,2.84-4.61ZM47.46,14.87c1.76,0,3.18,1.43,3.18,3.18,0,1.46-.99,2.7-2.35,3.05-1.22-1.16-2.57-2.19-4.02-3.07.01-1.75,1.43-3.16,3.18-3.16ZM24.46,6.93v-1.13c0-1.02.83-1.85,1.85-1.85h11.13c1.02,0,1.85.83,1.85,1.85v1.13c0,1.02-.83,1.85-1.85,1.85h-.98s0,0,0,0,0,0,0,0h-9.15s0,0,0,0,0,0,0,0h-.98c-1.02,0-1.85-.83-1.85-1.85ZM28.3,10.79h7.16v4.07c-1.13-.17-2.28-.25-3.46-.25-1.26,0-2.49.1-3.7.29v-4.11ZM13.11,18.06c0-1.75,1.43-3.18,3.18-3.18s3.18,1.43,3.18,3.18c0,.05,0,.09-.01.14-1.37.86-2.64,1.85-3.81,2.96-1.45-.29-2.55-1.57-2.55-3.1ZM32,60.05c-11.98,0-21.72-9.75-21.72-21.72s9.75-21.72,21.72-21.72,21.72,9.75,21.72,21.72-9.75,21.72-21.72,21.72Z"/>
</svg>