<?xml version="1.0" encoding="UTF-8"?>
<svg id="Outline" xmlns="http://www.w3.org/2000/svg" version="1.1" viewBox="0 0 64 64">
  <path d="M48.89034,48.45014c.05696-.13378.09965-.27412.09965-.41016,0-.01001.01001-.02997.01001-.03998V9.66998c0-1.46997-1.34998-2.66998-3-2.66998h-26c-2.76001,0-5,1.94-5,4.32996v40.67004c0,2.76001,2.23999,5,5,5h28c.34996,0,.66996-.17998.84995-.47.30414-.49004.05636-.94741-.16996-1.4-.97998-1.96002-.97998-4.30004,0-6.26.06008-.12016.1447-.26566.21036-.41987ZM27,9h4v5.13l-1.45001-.96002c-.15997-.10999-.35999-.16998-.54999-.16998s-.39001.06-.54999.16998l-1.45001.96002v-5.13ZM17,11.32996c0-1.27997,1.34998-2.32996,3-2.32996h1v38h-1c-1.13,0-2.15997.39001-3,1.02997V11.32996ZM46.46002,55h-26.46002c-1.65002,0-3-1.35004-3-3s1.34998-3,3-3h26.46002c-.67999,1.94-.67999,4.06,0,6ZM47,47h-24V9h2v7c0,.37.20001.70996.53003.88.31995.17999.71997.15997,1.01996-.05005l2.45001-1.62994s2.45001,1.62994,2.45014,1.63003c.65128.44785,1.54986-.05538,1.54986-.83004v-7h13c.59003,0,1,.34998,1,.66998v37.33002Z" fill="#000" stroke-width="0"/>
  <path d="M44,43h-6c-.55225,0-1,.44775-1,1s.44775,1,1,1h6c.55225,0,1-.44775,1-1s-.44775-1-1-1Z" fill="#000" stroke-width="0"/>
  <path d="M44,39h-6c-.55225,0-1,.44775-1,1s.44775,1,1,1h6c.55225,0,1-.44775,1-1s-.44775-1-1-1Z" fill="#000" stroke-width="0"/>
  <path d="M26,37h6c.55225,0,1-.44775,1-1s-.44775-1-1-1h-6c-.55225,0-1,.44775-1,1s.44775,1,1,1Z" fill="#000" stroke-width="0"/>
  <path d="M26,33h6c.55225,0,1-.44775,1-1s-.44775-1-1-1h-6c-.55225,0-1,.44775-1,1s.44775,1,1,1Z" fill="#000" stroke-width="0"/>
  <path d="M26,29h18c.55225,0,1-.44775,1-1v-8c0-.55225-.44775-1-1-1h-18c-.55225,0-1,.44775-1,1v8c0,.55225.44775,1,1,1ZM27,21h16v6h-16v-6Z" fill="#000" stroke-width="0"/>
</svg>