<?xml version="1.0" encoding="UTF-8"?>
<svg id="Outline" xmlns="http://www.w3.org/2000/svg" version="1.1" viewBox="0 0 64 64">
  <path d="M42,7H10c-1.65002,0-3,1.34998-3,3v44c0,1.64996,1.34998,3,3,3h32c1.65002,0,3-1.35004,3-3V10c0-1.65002-1.34998-3-3-3ZM21,9h10v2h-1c-.54999,0-1,.45001-1,1,0,1.64996-1.34998,3-3,3s-3-1.35004-3-3c0-.54999-.45001-1-1-1h-1v-2ZM21.09998,13c.47003,2.27997,2.48004,4,4.90002,4s4.42999-1.72003,4.90002-4h8.09998v29.07996c-.79999.57001-1.65002,1.02002-2.56,1.34003-1.10999.38-2.26001.58002-3.44.58002-.54999,0-1,.45001-1,1,0,2.14001-.69,4.25-1.91998,6H13V13h8.09998ZM38.97998,44.45996c-.22998,3.5-3.02997,6.29004-6.52997,6.52002.84998-1.54999,1.37-3.26001,1.51001-5.02002,1.07001-.07996,2.12-.29999,3.13995-.64996.64001-.23004,1.27002-.51001,1.88-.85004ZM43,54c0,.54999-.45001,1-1,1H10c-.54999,0-1-.45001-1-1V10c0-.54999.45001-1,1-1h9v2h-7c-.54999,0-1,.45001-1,1v40c0,.54999.45001,1,1,1h20c4.96002,0,9-4.04004,9-9V12c0-.54999-.45001-1-1-1h-7v-2h9c.54999,0,1,.45001,1,1v44Z" fill="#000" stroke-width="0"/>
  <path d="M52,21c-2.75684,0-5,2.24316-5,5v24c0,.19727.05859.39062.16797.55469l4,6c.18555.27832.49805.44531.83203.44531s.64648-.16699.83203-.44531l4-6c.10938-.16406.16797-.35742.16797-.55469v-24c0-2.75684-2.24316-5-5-5ZM49,29h6v2h-6v-2ZM49,26c0-1.6543,1.3457-3,3-3s3,1.3457,3,3v1h-6v-1ZM55,49.69727l-3,4.5-3-4.5v-16.69727h6v16.69727Z" fill="#000" stroke-width="0"/>
  <circle cx="26" cy="12" r="1" fill="#000" stroke-width="0"/>
  <path d="M20,19h-4c-.55273,0-1,.44775-1,1v4c0,.55225.44727,1,1,1h4c.55273,0,1-.44775,1-1v-4c0-.55225-.44727-1-1-1ZM19,23h-2v-2h2v2Z" fill="#000" stroke-width="0"/>
  <path d="M20,27h-4c-.55273,0-1,.44775-1,1v4c0,.55225.44727,1,1,1h4c.55273,0,1-.44775,1-1v-4c0-.55225-.44727-1-1-1ZM19,31h-2v-2h2v2Z" fill="#000" stroke-width="0"/>
  <path d="M20,35h-4c-.55273,0-1,.44775-1,1v4c0,.55225.44727,1,1,1h4c.55273,0,1-.44775,1-1v-4c0-.55225-.44727-1-1-1ZM19,39h-2v-2h2v2Z" fill="#000" stroke-width="0"/>
  <path d="M24,19c-.55273,0-1,.44775-1,1s.44727,1,1,1h8c.55273,0,1-.44775,1-1s-.44727-1-1-1h-8Z" fill="#000" stroke-width="0"/>
  <path d="M23,24c0,.55225.44727,1,1,1h12c.55273,0,1-.44775,1-1s-.44727-1-1-1h-12c-.55273,0-1,.44775-1,1Z" fill="#000" stroke-width="0"/>
  <path d="M24,29h8c.55273,0,1-.44775,1-1s-.44727-1-1-1h-8c-.55273,0-1,.44775-1,1s.44727,1,1,1Z" fill="#000" stroke-width="0"/>
  <path d="M36,31h-12c-.55273,0-1,.44775-1,1s.44727,1,1,1h12c.55273,0,1-.44775,1-1s-.44727-1-1-1Z" fill="#000" stroke-width="0"/>
  <path d="M24,37h8c.55273,0,1-.44775,1-1s-.44727-1-1-1h-8c-.55273,0-1,.44775-1,1s.44727,1,1,1Z" fill="#000" stroke-width="0"/>
  <path d="M36,39h-6c-.55273,0-1,.44775-1,1s.44727,1,1,1h6c.55273,0,1-.44775,1-1s-.44727-1-1-1Z" fill="#000" stroke-width="0"/>
  <path d="M26,39h-2c-.55273,0-1,.44775-1,1s.44727,1,1,1h2c.55273,0,1-.44775,1-1s-.44727-1-1-1Z" fill="#000" stroke-width="0"/>
</svg>